<svg width="37" height="28" viewBox="0 0 37 28" fill="none" xmlns="http://www.w3.org/2000/svg">
<path fill-rule="evenodd" clip-rule="evenodd" d="M0 0H37V28H0V0Z" fill="#229E45"/>
<path fill-rule="evenodd" clip-rule="evenodd" d="M18.5814 25.4299L36.0109 14.0158L18.4759 2.5708L0.989258 14.0432L18.5814 25.4298V25.4299Z" fill="#F8E509"/>
<path fill-rule="evenodd" clip-rule="evenodd" d="M26.1757 13.9999C26.1757 18.1024 22.8745 21.4281 18.8021 21.4281C14.7297 21.4281 11.4285 18.1024 11.4285 13.9999C11.4285 9.89748 14.7298 6.57178 18.8021 6.57178C22.8745 6.57178 26.1758 9.89748 26.1758 13.9999H26.1757Z" fill="#2B49A3"/>
<path fill-rule="evenodd" clip-rule="evenodd" d="M16.3783 18.4488L16.1503 18.3161L15.9137 18.4343L15.9667 18.1688L15.7839 17.9745L16.0452 17.9436L16.168 17.7056L16.2775 17.9517L16.5353 17.999L16.342 18.1816L16.3783 18.4488ZM21.3195 19.7113L21.0917 19.5786L20.8552 19.6968L20.9081 19.4314L20.7254 19.237L20.9867 19.2061L21.1094 18.9681L21.2189 19.2142L21.4768 19.2615L21.2834 19.4441L21.3195 19.7113ZM19.1897 17.6945L18.9929 17.5799L18.7885 17.6819L18.8343 17.4526L18.6764 17.2846L18.9021 17.258L19.0082 17.0525L19.1027 17.2651L19.3255 17.3059L19.1584 17.4637L19.1897 17.6945ZM24.1803 16.9692L23.9871 16.8568L23.7864 16.957L23.8313 16.7319L23.6763 16.567L23.8979 16.5408L24.002 16.3389L24.0949 16.5478L24.3136 16.5878L24.1496 16.7428L24.1803 16.9692ZM19.0995 15.4596L18.8717 15.327L18.6351 15.4451L18.688 15.1797L18.5052 14.9853L18.7667 14.9544L18.8894 14.7164L18.9989 14.9626L19.2568 15.0098L19.0633 15.1924L19.0995 15.4596ZM13.0153 13.1548L12.7875 13.0222L12.5508 13.1403L12.6038 12.875L12.4211 12.6806L12.6824 12.6496L12.8051 12.4116L12.9146 12.6578L13.1724 12.7051L12.9791 12.8876L13.0153 13.1548ZM13.747 16.2208L13.5192 16.0881L13.2825 16.2062L13.3355 15.9409L13.1528 15.7464L13.4141 15.7155L13.5368 15.4775L13.6463 15.7237L13.9042 15.7709L13.7108 15.9536L13.747 16.2208ZM21.3394 12.0261L21.1382 11.909L20.9292 12.0133L20.976 11.779L20.8145 11.6072L21.0454 11.5798L21.1538 11.3696L21.2505 11.5871L21.4783 11.6288L21.3074 11.7902L21.3394 12.0261ZM20.9221 14.0208L20.7637 13.9285L20.5989 14.0107L20.6359 13.8261L20.5087 13.6908L20.6906 13.6693L20.776 13.5038L20.8521 13.675L21.0315 13.7079L20.897 13.835L20.9221 14.0208ZM12.6761 16.7763L12.5241 16.6878L12.366 16.7666L12.4013 16.5895L12.2793 16.4597L12.4539 16.439L12.5358 16.2802L12.6088 16.4446L12.781 16.4761L12.6519 16.598L12.6761 16.7763ZM24.2225 17.4826L24.0986 17.4163L23.9698 17.4753L23.9987 17.3428L23.8993 17.2457L24.0415 17.2302L24.1082 17.1113L24.1678 17.2343L24.308 17.2579L24.2028 17.349" fill="#FFFFEF"/>
<path fill-rule="evenodd" clip-rule="evenodd" d="M12.6761 16.7769L12.5241 16.6883L12.366 16.7672L12.4013 16.59L12.2793 16.4603L12.4539 16.4396L12.5358 16.2808L12.6088 16.4451L12.781 16.4766L12.6519 16.5986" fill="#FFFFEF"/>
<path fill-rule="evenodd" clip-rule="evenodd" d="M12.6761 16.7769L12.5241 16.6884L12.366 16.7673L12.4013 16.5901L12.2793 16.4603L12.4539 16.4397L12.5358 16.2808L12.6088 16.4452L12.781 16.4767L12.6519 16.5986L12.6761 16.7769ZM15.0973 16.7764L14.9453 16.6877L14.7873 16.7667L14.8225 16.5895L14.7005 16.4597L14.8751 16.4391L14.957 16.2803L15.0301 16.4446L15.2023 16.4761L15.0732 16.598L15.0973 16.7764ZM14.7965 17.5891L14.6445 17.5005L14.4864 17.5794L14.5218 17.4022L14.3998 17.2724L14.5742 17.2517L14.6561 17.0928L14.7293 17.2571L14.9014 17.2886L14.7723 17.4106L14.7965 17.5891ZM19.824 16.1097L19.672 16.021L19.514 16.0999L19.5492 15.9228L19.4272 15.793L19.6017 15.7724L19.6836 15.6135L19.7568 15.7779L19.9289 15.8094L19.7998 15.9313L19.824 16.1097ZM18.3487 16.1091L18.1967 16.0205L18.0386 16.0994L18.074 15.9222L17.952 15.7924L18.1265 15.7719L18.2084 15.613L18.2815 15.7773L18.4538 15.8088L18.3246 15.9307L18.3487 16.1091ZM14.3471 15.5901L14.2519 15.5346L14.1528 15.584L14.175 15.4731L14.0985 15.3918L14.2077 15.3788L14.2592 15.2793L14.305 15.3822L14.4128 15.4021L14.3318 15.4785L14.3471 15.5901ZM24.0349 18.1259L23.8829 18.0373L23.7249 18.1161L23.7603 17.9391L23.6383 17.8092L23.8127 17.7886L23.8946 17.6297L23.9677 17.794L24.1399 17.8255L24.0108 17.9474L24.0349 18.1259ZM22.8064 18.2883L22.6805 18.2148L22.5496 18.2802L22.5789 18.1331L22.4779 18.0253L22.6224 18.0082L22.6903 17.8762L22.7509 18.0127L22.8934 18.039L22.7865 18.1402L22.8064 18.2883ZM23.3861 18.2742L23.2687 18.2058L23.1468 18.2667L23.1741 18.1299L23.0799 18.0297L23.2146 18.0137L23.2778 17.891L23.3342 18.018L23.4669 18.0424L23.3673 18.1366L23.3861 18.2742ZM25.0503 16.8088L24.9372 16.7429L24.8199 16.8016L24.8461 16.67L24.7555 16.5734L24.8852 16.5581L24.9461 16.4401L25.0004 16.5621L25.1282 16.5855L25.0323 16.6761L25.0503 16.8088ZM22.792 19.1153L22.6443 19.034L22.491 19.1063L22.5253 18.9438L22.4068 18.8246L22.5762 18.8057L22.6558 18.6598L22.7267 18.8107L22.8938 18.8396L22.7685 18.9516L22.792 19.1153ZM22.8002 19.7827L22.6655 19.7013L22.5258 19.7736L22.5571 19.6111L22.449 19.4919L22.6035 19.473L22.6761 19.3272L22.7408 19.478L22.8931 19.5069L22.7789 19.6188L22.8002 19.7827ZM21.6845 18.2739L21.5715 18.208L21.454 18.2667L21.4803 18.1351L21.3897 18.0386L21.5193 18.0233L21.5802 17.9052L21.6346 18.0273L21.7625 18.0507L21.6665 18.1414L21.6845 18.2739ZM20.6386 18.2739L20.5256 18.208L20.4083 18.2667L20.4345 18.1351L20.3437 18.0386L20.4735 18.0233L20.5343 17.9052L20.5887 18.0273L20.7165 18.0507L20.6206 18.1414L20.6386 18.2739ZM18.8626 16.7069L18.7496 16.6411L18.6323 16.6997L18.6585 16.568L18.5679 16.4716L18.6975 16.4562L18.7584 16.3381L18.8127 16.4602L18.9406 16.4837L18.8447 16.5743L18.8626 16.7069ZM19.0605 19.9007L18.9648 19.8449L18.8654 19.8945L18.8877 19.7831L18.8108 19.7014L18.9206 19.6884L18.9722 19.5884L19.0182 19.6917L19.1266 19.7116L19.0452 19.7883L19.0605 19.9007ZM16.3783 14.7349L16.1504 14.6023L15.9137 14.7204L15.9668 14.4551L15.7839 14.2606L16.0453 14.2297L16.1681 13.9917L16.2776 14.2379L16.5354 14.2851L16.342 14.4678" fill="#FFFFEF"/>
<path fill-rule="evenodd" clip-rule="evenodd" d="M25.69 16.6724C25.8024 16.3759 25.9473 15.9286 26.0243 15.5182C22.108 12.0469 17.7421 10.2686 12.2256 10.6345C12.0278 11.0171 11.8695 11.4175 11.736 11.8509C18.2724 11.2218 23.0635 14.1417 25.6902 16.6724L25.69 16.6724Z" fill="white"/>
<path d="M23.9294 14.7211L24.0693 14.7983C24.0473 14.8483 24.0415 14.8922 24.0513 14.9295C24.0617 14.9672 24.0875 15 24.1285 15.028C24.1719 15.058 24.2108 15.0712 24.2451 15.0677C24.2798 15.0642 24.3055 15.0498 24.3222 15.0249C24.3325 15.0102 24.3371 14.9923 24.3353 14.9745C24.3337 14.957 24.3242 14.936 24.3066 14.9118C24.2945 14.8955 24.265 14.8609 24.2182 14.8081C24.1581 14.7405 24.1222 14.6834 24.1107 14.6369C24.0945 14.5714 24.1043 14.512 24.1401 14.4584C24.1633 14.424 24.1943 14.3983 24.2333 14.3815C24.273 14.3646 24.3162 14.3608 24.3628 14.3699C24.4097 14.3791 24.459 14.4014 24.5103 14.4366C24.5943 14.4942 24.645 14.5561 24.6623 14.6224C24.6799 14.6887 24.6691 14.7538 24.6296 14.8175L24.4907 14.7309C24.508 14.6921 24.5123 14.6586 24.5033 14.6304C24.4948 14.6021 24.4715 14.575 24.4333 14.5489C24.3942 14.5221 24.358 14.5091 24.325 14.5102C24.3151 14.5102 24.3054 14.5127 24.2967 14.5175C24.2881 14.5222 24.2808 14.5291 24.2755 14.5375C24.2647 14.5537 24.2623 14.572 24.268 14.5925C24.2755 14.6188 24.3066 14.6621 24.3619 14.7229C24.417 14.7835 24.4546 14.8331 24.4746 14.8714C24.4952 14.9098 24.5045 14.9496 24.5025 14.991C24.5012 15.0322 24.4861 15.0743 24.4575 15.117C24.4317 15.1557 24.3953 15.186 24.3528 15.2041C24.3088 15.2234 24.262 15.2281 24.2119 15.2181C24.1622 15.2078 24.1082 15.1827 24.0501 15.1429C23.9656 15.085 23.9137 15.0208 23.8948 14.9504C23.8762 14.8796 23.8876 14.8032 23.9295 14.7214L23.9294 14.7211ZM23.2658 14.2817L23.4087 14.3529C23.3888 14.4037 23.3846 14.4478 23.396 14.4847C23.408 14.5218 23.4348 14.5537 23.4769 14.5801C23.5217 14.6082 23.561 14.6197 23.595 14.6148C23.6297 14.6098 23.655 14.5946 23.6705 14.569C23.6802 14.554 23.6842 14.5359 23.6815 14.5182C23.6793 14.5006 23.6689 14.48 23.6503 14.4565C23.6376 14.4406 23.6069 14.4075 23.558 14.3566C23.4951 14.2914 23.457 14.2358 23.4436 14.1898C23.4249 14.125 23.4324 14.0653 23.4659 14.0103C23.4875 13.9751 23.5188 13.9471 23.5561 13.9298C23.595 13.9113 23.6382 13.9057 23.685 13.9128C23.7323 13.9203 23.7824 13.9404 23.835 13.9735C23.9213 14.0275 23.9742 14.0874 23.9942 14.1528C24.0144 14.2185 24.0063 14.2839 23.9695 14.3491L23.827 14.2683C23.8429 14.2289 23.8459 14.1953 23.8357 14.1675C23.826 14.1394 23.8016 14.1133 23.7626 14.0888C23.7223 14.0635 23.6857 14.0521 23.6528 14.0546C23.6314 14.0561 23.6154 14.066 23.6043 14.084C23.5944 14.1004 23.5925 14.1186 23.5991 14.1391C23.6075 14.1649 23.6404 14.207 23.698 14.2655C23.7555 14.3239 23.7951 14.3718 23.8166 14.4093C23.8386 14.4467 23.8495 14.4862 23.8492 14.5276C23.8496 14.5689 23.836 14.6114 23.8093 14.6555C23.7849 14.6951 23.7498 14.7268 23.7081 14.7468C23.665 14.7678 23.6182 14.7744 23.5678 14.7664C23.5178 14.7582 23.4629 14.7351 23.4031 14.6978C23.3165 14.6434 23.2622 14.5814 23.2404 14.5118C23.2188 14.4418 23.2271 14.3651 23.2657 14.2817L23.2658 14.2817ZM22.4445 14.0596L22.8651 13.3616L23.376 13.6775L23.3049 13.7957L22.9332 13.5658L22.8398 13.7205L23.1857 13.9344L23.1149 14.052L22.7689 13.8381L22.6546 14.028L23.0395 14.266L22.9685 14.3837L22.4446 14.0595L22.4445 14.0596ZM21.2482 13.0684L21.3107 12.9459L21.6229 13.109L21.4757 13.3984C21.43 13.4123 21.3728 13.4157 21.3033 13.4083C21.2364 13.4013 21.1713 13.3818 21.1115 13.3508C21.0364 13.3115 20.9791 13.2617 20.9395 13.2008C20.9003 13.1409 20.8806 13.0701 20.8832 12.9984C20.8857 12.923 20.905 12.8492 20.9396 12.7823C20.978 12.7066 21.0281 12.6476 21.0894 12.605C21.1505 12.5626 21.2195 12.5414 21.2958 12.5414C21.354 12.5413 21.4174 12.5593 21.486 12.5949C21.5751 12.6415 21.635 12.6968 21.6654 12.7609C21.6966 12.8248 21.7023 12.8939 21.6826 12.9683L21.5249 12.9204C21.533 12.8795 21.5282 12.8413 21.5105 12.8063C21.4934 12.7709 21.4639 12.7424 21.4222 12.7205C21.3588 12.6874 21.2981 12.6814 21.2398 12.7027C21.182 12.7239 21.1329 12.7745 21.0922 12.8544C21.0482 12.9407 21.034 13.0154 21.0499 13.0785C21.066 13.1411 21.1045 13.1885 21.166 13.2207C21.1963 13.2364 21.2296 13.2463 21.2661 13.2502C21.3031 13.2541 21.3366 13.2532 21.3674 13.2473L21.4142 13.155L21.2482 13.0684L21.2482 13.0684ZM16.0311 11.7629L16.1487 10.954L16.3899 10.9902L16.4548 11.5634L16.678 11.0329L16.9201 11.069L16.8026 11.8781L16.6528 11.8558L16.7453 11.2189L16.4943 11.8321L16.339 11.8089L16.2735 11.1485L16.181 11.7853L16.0311 11.763V11.7629ZM15.2155 11.6674L15.291 10.853L15.8868 10.9098L15.8743 11.0475L15.4405 11.0063L15.4238 11.1869L15.8272 11.2252L15.8144 11.3624L15.4109 11.324L15.3905 11.5457L15.8394 11.5883L15.8266 11.7256L15.2155 11.6674H15.2155Z" fill="#309E3A"/>
<path d="M12.5164 11.1584C12.5187 11.075 12.5329 11.0056 12.559 10.9496C12.5784 10.9087 12.6047 10.8715 12.6368 10.8397C12.6695 10.8075 12.705 10.7839 12.7434 10.7691C12.7943 10.7489 12.8526 10.7397 12.9182 10.7414C13.037 10.7449 13.131 10.7848 13.2001 10.8614C13.2698 10.9381 13.3027 11.0431 13.2992 11.1761C13.2958 11.308 13.2576 11.4104 13.1846 11.4832C13.1118 11.5555 13.0162 11.5902 12.8977 11.5868C12.7776 11.5836 12.6833 11.5439 12.6144 11.468C12.5456 11.3917 12.513 11.2885 12.5165 11.1584H12.5164Z" fill="#309E3A"/>
<path d="M12.6849 11.1568C12.6824 11.2493 12.7017 11.3201 12.7425 11.3693C12.7835 11.4181 12.8365 11.4434 12.9014 11.4451C12.9663 11.4469 13.0202 11.4247 13.0629 11.3788C13.106 11.3323 13.1288 11.2617 13.1314 11.1668C13.1339 11.0732 13.1154 11.0027 13.0759 10.9556C13.0368 10.9083 12.9837 10.8838 12.9165 10.8819C12.8493 10.8802 12.7945 10.9021 12.7521 10.9477C12.7098 10.9931 12.6874 11.0628 12.6849 11.1568Z" fill="#F7FFFF"/>
<path d="M13.4733 11.5794L13.4827 10.7617L13.8257 10.7658C13.9121 10.7669 13.9745 10.775 14.0132 10.7903C14.0524 10.8053 14.0834 10.8317 14.1065 10.8696C14.1296 10.9076 14.1408 10.9504 14.1402 10.9988C14.1395 11.0602 14.1211 11.1107 14.085 11.1504C14.049 11.1898 13.9954 11.2143 13.9244 11.2239C13.9594 11.2451 13.9883 11.2682 14.0106 11.2935C14.0335 11.3186 14.0639 11.3632 14.1022 11.4272L14.1989 11.5879L14.004 11.5856L13.8882 11.4062C13.8472 11.3422 13.819 11.3019 13.8038 11.2854C13.7885 11.2685 13.7723 11.257 13.7552 11.2508C13.738 11.2444 13.7106 11.2409 13.6732 11.2405L13.6402 11.24L13.6363 11.5814L13.4733 11.5794V11.5794Z" fill="#309E3A"/>
<path d="M13.6423 11.1093L13.7629 11.1107C13.8412 11.1117 13.89 11.109 13.9095 11.1025C13.929 11.0959 13.9444 11.0847 13.9556 11.0684C13.9667 11.0521 13.9725 11.0318 13.9729 11.0073C13.9731 10.9797 13.9661 10.9575 13.9515 10.9406C13.9375 10.9234 13.9172 10.9123 13.8908 10.9076C13.8775 10.9056 13.8379 10.9041 13.7719 10.9034L13.6447 10.9019L13.6424 11.1092L13.6423 11.1093Z" fill="white"/>
<path d="M14.3956 10.8028L14.6931 10.818C14.7602 10.8215 14.8111 10.8293 14.8457 10.8416C14.8915 10.8576 14.9321 10.8857 14.9634 10.923C14.9954 10.9607 15.0188 11.0062 15.0339 11.0595C15.0489 11.1124 15.0544 11.1771 15.0506 11.2535C15.0473 11.3208 15.0361 11.3783 15.0171 11.4262C14.994 11.4845 14.9629 11.531 14.9236 11.566C14.8941 11.5924 14.8548 11.6121 14.806 11.6252C14.7694 11.6349 14.7211 11.6382 14.6609 11.6352L14.3547 11.6194L14.3956 10.8027V10.8028Z" fill="#309E3A"/>
<path d="M14.5518 10.9483L14.5248 11.4893L14.6464 11.4954C14.6918 11.4979 14.7248 11.4969 14.7452 11.4927C14.7718 11.4873 14.7944 11.4771 14.8123 11.462C14.8308 11.4469 14.8464 11.4215 14.8591 11.3856C14.872 11.3495 14.8799 11.2999 14.8832 11.2367C14.8864 11.1735 14.8832 11.1248 14.8739 11.0905C14.8647 11.056 14.8506 11.029 14.8317 11.009C14.8128 10.989 14.7884 10.975 14.7583 10.9667C14.7357 10.9603 14.6914 10.9555 14.625 10.9522L14.5519 10.9482L14.5518 10.9483Z" fill="white"/>
<path d="M18.363 12.2624L18.5514 11.4673L18.8058 11.5291C18.9021 11.5526 18.9641 11.5718 18.9914 11.5869C19.0336 11.6097 19.0651 11.645 19.0859 11.6925C19.1067 11.7397 19.1096 11.7948 19.0947 11.8581C19.0831 11.9069 19.0647 11.9459 19.0393 11.9748C19.0139 12.004 18.9854 12.0246 18.9537 12.0372C18.9225 12.0496 18.8922 12.0553 18.8629 12.0547C18.8233 12.0531 18.7675 12.0436 18.6959 12.0261L18.5926 12.0009L18.5215 12.3009L18.3629 12.2624H18.363Z" fill="#309E3A"/>
<path d="M18.6784 11.6396L18.6249 11.8653L18.7116 11.8864C18.7741 11.9016 18.8168 11.9076 18.8398 11.9044C18.8619 11.9016 18.8825 11.892 18.8989 11.8769C18.9153 11.8617 18.9266 11.8418 18.9312 11.8199C18.9382 11.791 18.9354 11.7651 18.9231 11.7423C18.911 11.7195 18.8915 11.7016 18.8678 11.6916C18.8498 11.6832 18.8123 11.6722 18.7551 11.6583L18.6785 11.6396H18.6784Z" fill="white"/>
<path d="M19.1132 12.4894L19.3814 11.7183L19.705 11.8338C19.7864 11.8628 19.843 11.8909 19.8748 11.9181C19.9072 11.9451 19.9282 11.9801 19.938 12.0235C19.9479 12.0668 19.945 12.1113 19.929 12.1568C19.9089 12.2147 19.8754 12.2566 19.8286 12.2824C19.782 12.308 19.7236 12.3137 19.6534 12.2998C19.6798 12.3313 19.6997 12.3626 19.7129 12.3937C19.7267 12.425 19.7412 12.4771 19.7571 12.5502L19.7978 12.734L19.614 12.6683L19.5612 12.4608C19.5426 12.3868 19.5287 12.3395 19.5196 12.3188C19.5104 12.2978 19.4988 12.2816 19.4845 12.2702C19.4703 12.2584 19.4456 12.2462 19.4101 12.2336L19.3792 12.2224L19.2671 12.5444L19.1133 12.4894H19.1132Z" fill="#309E3A"/>
<path d="M19.4214 12.1L19.5352 12.1405C19.6089 12.1669 19.656 12.1802 19.6765 12.1804C19.697 12.1807 19.7152 12.175 19.731 12.1632C19.7468 12.1515 19.7587 12.134 19.7666 12.1109C19.7756 12.085 19.776 12.0616 19.7676 12.0409C19.7598 12.0199 19.744 12.003 19.7206 11.9898C19.7087 11.9836 19.6717 11.9694 19.6094 11.9472L19.4894 11.9043L19.4214 12.1001L19.4214 12.1Z" fill="white"/>
<path d="M20.0615 12.4601C20.086 12.3806 20.1182 12.3176 20.1582 12.2711C20.1878 12.2369 20.2232 12.2083 20.2627 12.1865C20.303 12.1645 20.3435 12.1517 20.3842 12.1477C20.4386 12.1423 20.4971 12.1495 20.5599 12.1693C20.6735 12.2051 20.7532 12.2695 20.7992 12.3623C20.8456 12.4552 20.8493 12.5653 20.8102 12.6923C20.7715 12.8185 20.7073 12.9064 20.6177 12.9565C20.5282 13.0062 20.4268 13.0131 20.3136 12.9773C20.199 12.9411 20.1188 12.8771 20.0729 12.7852C20.027 12.6928 20.0233 12.5845 20.0615 12.4602L20.0615 12.4601Z" fill="#309E3A"/>
<path d="M20.2243 12.506C20.1971 12.5944 20.1965 12.6678 20.2228 12.7264C20.2491 12.7845 20.2933 12.8234 20.3553 12.8431C20.4174 12.8626 20.475 12.8561 20.5285 12.8235C20.5824 12.7907 20.6234 12.729 20.6512 12.6385C20.6787 12.5489 20.6798 12.4761 20.6545 12.4197C20.6295 12.3636 20.5849 12.3253 20.5207 12.3051C20.4566 12.2849 20.398 12.291 20.345 12.3233C20.2921 12.3553 20.2519 12.4162 20.2242 12.5061L20.2243 12.506Z" fill="white"/>
<path d="M21.6395 13.5988L22.0104 12.8726L22.3151 13.0322C22.3917 13.0724 22.444 13.108 22.4717 13.1395C22.5001 13.1705 22.5161 13.2083 22.52 13.2527C22.5239 13.297 22.5147 13.3404 22.4928 13.3834C22.4651 13.4379 22.4262 13.4747 22.3762 13.4938C22.3265 13.5126 22.268 13.5101 22.2003 13.4863C22.2222 13.5212 22.2376 13.5552 22.2466 13.5878C22.2557 13.6207 22.2632 13.6744 22.2689 13.749L22.2841 13.9366L22.111 13.8458L22.0871 13.633C22.0787 13.557 22.0714 13.5082 22.0652 13.4865C22.0591 13.4645 22.0496 13.4467 22.037 13.4334C22.0247 13.4198 22.0018 13.4043 21.9685 13.3869L21.9392 13.3715L21.7844 13.6746L21.6396 13.5988H21.6395Z" fill="#309E3A"/>
<path d="M21.9978 13.2551L22.1049 13.3112C22.1743 13.3477 22.2192 13.3673 22.2396 13.3705C22.2599 13.3736 22.2786 13.3705 22.2959 13.361C22.313 13.3517 22.3271 13.336 22.3382 13.3142C22.3507 13.2897 22.3542 13.2667 22.3489 13.245C22.3439 13.2232 22.3307 13.204 22.3093 13.1878C22.2983 13.18 22.2636 13.1607 22.2048 13.1299L22.0919 13.0708L21.9977 13.2551L21.9978 13.2551Z" fill="white"/>
<path d="M24.6343 15.0909C24.6804 15.0219 24.7292 14.9709 24.7809 14.938C24.819 14.9141 24.861 14.897 24.905 14.8878C24.9468 14.8785 24.9901 14.8779 25.0322 14.8861C25.0859 14.8969 25.1399 14.9209 25.1943 14.9582C25.2929 15.0256 25.3509 15.1105 25.3686 15.2128C25.3865 15.3154 25.3586 15.4217 25.2849 15.532C25.2119 15.6413 25.1254 15.7069 25.0254 15.7286C24.9255 15.7499 24.8265 15.727 24.7283 15.6597C24.6289 15.5915 24.5703 15.5067 24.5525 15.4052C24.535 15.3034 24.5622 15.1986 24.6342 15.0908L24.6343 15.0909Z" fill="#309E3A"/>
<path d="M24.7771 15.1811C24.7259 15.2578 24.7045 15.3279 24.7128 15.3916C24.7215 15.4551 24.7527 15.5051 24.8065 15.542C24.8603 15.5789 24.9175 15.5896 24.978 15.5741C25.039 15.5584 25.0958 15.5113 25.1482 15.4327C25.2 15.3551 25.2218 15.2857 25.2135 15.2243C25.2055 15.1632 25.1737 15.1136 25.1181 15.0754C25.0625 15.0373 25.0047 15.0258 24.9447 15.0414C24.885 15.0566 24.8292 15.1032 24.777 15.1811H24.7771Z" fill="white"/>
<path d="M17.4492 11.9304L17.5792 11.3564L17.9994 11.4542L17.9775 11.5511L17.6719 11.4801L17.6427 11.6073L17.9275 11.6735L17.9054 11.7701L17.6211 11.7041L17.5856 11.8602L17.9021 11.9337L17.8803 12.0305L17.4492 11.9304V11.9304Z" fill="#309E3A"/>
</svg>
