<svg width="259" height="162" viewBox="0 0 259 162" fill="none" xmlns="http://www.w3.org/2000/svg">
<path d="M0 56.627L227.97 89.447L258.56 120.317L0 56.627Z" fill="#52B788"/>
<path opacity="0.6" d="M0 56.627L227.97 89.447L258.56 120.317L0 56.627Z" fill="white"/>
<path d="M0 56.627L227.97 89.447L217.39 134.087L0 56.627Z" fill="#52B788"/>
<path opacity="0.2" d="M0 56.627L227.97 89.447L217.39 134.087L0 56.627Z" fill="black"/>
<path d="M212.71 4.94655L225.94 66.9466C226.284 68.5655 225.972 70.2549 225.072 71.6441C224.172 73.0332 222.758 74.0087 221.14 74.3565L103.06 99.5566C101.441 99.898 99.7532 99.5847 98.3647 98.6853C96.9762 97.7859 96.0002 96.3734 95.65 94.7566L82.41 32.7565C82.0688 31.1364 82.3834 29.4471 83.2849 28.0583C84.1864 26.6696 85.6013 25.6945 87.22 25.3465L205.3 0.146551C206.92 -0.194587 208.609 0.12 209.998 1.02147C211.387 1.92293 212.362 3.33785 212.71 4.95655V4.94655Z" fill="#52B788"/>
<path opacity="0.4" d="M212.71 4.94655L225.94 66.9466C226.284 68.5655 225.972 70.2549 225.072 71.6441C224.172 73.0332 222.758 74.0087 221.14 74.3565L103.06 99.5566C101.441 99.898 99.7532 99.5847 98.3647 98.6853C96.9762 97.7859 96.0002 96.3734 95.65 94.7566L82.41 32.7565C82.0688 31.1364 82.3834 29.4471 83.2849 28.0583C84.1864 26.6696 85.6013 25.6945 87.22 25.3465L205.3 0.146551C206.92 -0.194587 208.609 0.12 209.998 1.02147C211.387 1.92293 212.362 3.33785 212.71 4.95655V4.94655Z" fill="black"/>
<path d="M209.8 0.886503L170.35 49.3165C166.691 53.8066 161.609 56.9133 155.945 58.1225C150.281 59.3318 144.373 58.5712 139.2 55.9665L83.4099 27.8665C84.3125 26.5699 85.6747 25.6654 87.2199 25.3365L205.3 0.136503C206.841 -0.191449 208.449 0.076535 209.8 0.886503Z" fill="#52B788"/>
<path d="M0 56.627L188.03 101.317L217.39 134.087L0 56.627Z" fill="#52B788"/>
<path opacity="0.6" d="M0 56.627L188.03 101.317L217.39 134.087L0 56.627Z" fill="white"/>
<path d="M68.5889 99.7016L68.0835 100.564L89.008 112.821L89.5134 111.958L68.5889 99.7016Z" fill="#52B788"/>
<path d="M98.7518 117.362L98.2463 118.225L105.771 122.632L106.276 121.769L98.7518 117.362Z" fill="#52B788"/>
<path d="M0 56.627L188.03 101.317L151.48 145.367L0 56.627Z" fill="#52B788"/>
<path d="M251.5 161.326C251.247 161.327 250.995 161.279 250.76 161.186L220.14 149.066C219.65 148.869 219.258 148.486 219.05 148C218.841 147.515 218.833 146.967 219.027 146.476C219.221 145.985 219.602 145.59 220.086 145.379C220.57 145.167 221.117 145.155 221.61 145.346L252.24 157.466C252.673 157.637 253.033 157.955 253.258 158.363C253.482 158.771 253.557 159.245 253.469 159.703C253.381 160.16 253.137 160.573 252.777 160.869C252.418 161.166 251.966 161.327 251.5 161.326Z" fill="#52B788"/>
<path opacity="0.3" d="M251.5 161.326C251.247 161.327 250.995 161.279 250.76 161.186L220.14 149.066C219.65 148.869 219.258 148.486 219.05 148C218.841 147.515 218.833 146.967 219.027 146.476C219.221 145.985 219.602 145.59 220.086 145.379C220.57 145.167 221.117 145.155 221.61 145.346L252.24 157.466C252.673 157.637 253.033 157.955 253.258 158.363C253.482 158.771 253.557 159.245 253.469 159.703C253.381 160.16 253.137 160.573 252.777 160.869C252.418 161.166 251.966 161.327 251.5 161.326Z" fill="black"/>
<path d="M249.69 143.766C249.439 143.764 249.191 143.713 248.96 143.616L232.51 137.066C232.264 136.971 232.039 136.828 231.849 136.645C231.659 136.463 231.506 136.244 231.4 136.003C231.295 135.761 231.238 135.501 231.233 135.237C231.228 134.974 231.276 134.711 231.373 134.466C231.47 134.221 231.614 133.997 231.798 133.808C231.982 133.619 232.201 133.468 232.443 133.364C232.686 133.259 232.946 133.204 233.21 133.201C233.474 133.198 233.735 133.247 233.98 133.346L250.43 139.866C250.923 140.06 251.319 140.442 251.531 140.927C251.743 141.413 251.753 141.963 251.56 142.456C251.419 142.839 251.165 143.17 250.83 143.404C250.496 143.638 250.098 143.765 249.69 143.766Z" fill="#52B788"/>
<path opacity="0.5" d="M249.69 143.766C249.439 143.764 249.191 143.713 248.96 143.616L232.51 137.066C232.264 136.971 232.039 136.828 231.849 136.645C231.659 136.463 231.506 136.244 231.4 136.003C231.295 135.761 231.238 135.501 231.233 135.237C231.228 134.974 231.276 134.711 231.373 134.466C231.47 134.221 231.614 133.997 231.798 133.808C231.982 133.619 232.201 133.468 232.443 133.364C232.686 133.259 232.946 133.204 233.21 133.201C233.474 133.198 233.735 133.247 233.98 133.346L250.43 139.866C250.923 140.06 251.319 140.442 251.531 140.927C251.743 141.413 251.753 141.963 251.56 142.456C251.419 142.839 251.165 143.17 250.83 143.404C250.496 143.638 250.098 143.765 249.69 143.766Z" fill="white"/>
<path d="M215.3 161.066C215.05 161.063 214.803 161.016 214.57 160.926L184.7 149.066C184.454 148.971 184.229 148.828 184.039 148.645C183.848 148.463 183.696 148.244 183.59 148.003C183.485 147.761 183.428 147.501 183.423 147.237C183.418 146.974 183.466 146.711 183.563 146.466C183.659 146.221 183.804 145.997 183.988 145.808C184.171 145.619 184.391 145.468 184.633 145.364C184.876 145.259 185.136 145.204 185.4 145.201C185.664 145.198 185.925 145.247 186.17 145.346L216.04 157.166C216.473 157.337 216.833 157.654 217.058 158.063C217.282 158.471 217.357 158.945 217.269 159.403C217.181 159.86 216.937 160.273 216.577 160.569C216.218 160.866 215.766 161.027 215.3 161.026V161.066Z" fill="#52B788"/>
<path opacity="0.3" d="M215.3 161.066C215.05 161.063 214.803 161.016 214.57 160.926L184.7 149.066C184.454 148.971 184.229 148.828 184.039 148.645C183.848 148.463 183.696 148.244 183.59 148.003C183.485 147.761 183.428 147.501 183.423 147.237C183.418 146.974 183.466 146.711 183.563 146.466C183.659 146.221 183.804 145.997 183.988 145.808C184.171 145.619 184.391 145.468 184.633 145.364C184.876 145.259 185.136 145.204 185.4 145.201C185.664 145.198 185.925 145.247 186.17 145.346L216.04 157.166C216.473 157.337 216.833 157.654 217.058 158.063C217.282 158.471 217.357 158.945 217.269 159.403C217.181 159.86 216.937 160.273 216.577 160.569C216.218 160.866 215.766 161.027 215.3 161.026V161.066Z" fill="black"/>
</svg>
